<svg id="Layer_1" data-name="Layer 1" xmlns="http://www.w3.org/2000/svg" xmlns:xlink="http://www.w3.org/1999/xlink" viewBox="0 0 232.15 102.67"><defs><style>.cls-1{fill:#FFFFFF;}.cls-2{fill:url(#linear-gradient);}.cls-3{fill:url(#linear-gradient-2);}.cls-4{fill:url(#linear-gradient-3);}</style><linearGradient id="linear-gradient" x1="126.24" y1="19.67" x2="184.32" y2="120.52" gradientUnits="userSpaceOnUse"><stop offset="0.19" stop-color="#FFFFFF"/><stop offset="0.33" stop-color="#FFFFFF"/><stop offset="0.45" stop-color="#FFFFFF"/><stop offset="0.58" stop-color="#FFFFFF"/><stop offset="0.7" stop-color="#FFFFFF"/><stop offset="0.79" stop-color="#FFFFFF"/></linearGradient><linearGradient id="linear-gradient-2" x1="181.16" y1="-11.95" x2="239.23" y2="88.9" xlink:href="#linear-gradient"/><linearGradient id="linear-gradient-3" x1="158.61" y1="1.03" x2="216.68" y2="101.88" xlink:href="#linear-gradient"/></defs><title>gateway_main_rgb</title><path class="cls-1" d="M28.37,46.88a.79.79,0,0,1,.87-.89h1a.79.79,0,0,1,.87.89v5.47h6.86V46.88a.79.79,0,0,1,.88-.89h1a.79.79,0,0,1,.87.89V60.09a.78.78,0,0,1-.87.89h-1a.78.78,0,0,1-.88-.89v-5.4H31.08v5.4a.78.78,0,0,1-.87.89h-1a.78.78,0,0,1-.87-.89Z" transform="translate(-28.37 -14.01)"/><path class="cls-1" d="M48.11,50c3.06,0,4.77,2.18,4.77,5.13A.93.93,0,0,1,52,56H45.39a3.09,3.09,0,0,0,3.23,3,4.52,4.52,0,0,0,2.32-.69c.53-.26.91-.19,1.18.29l.26.43a.81.81,0,0,1-.3,1.18,6.84,6.84,0,0,1-3.65,1.07,5.52,5.52,0,0,1-5.79-5.63A5.31,5.31,0,0,1,48.11,50Zm2.11,4.41A2.19,2.19,0,0,0,48.05,52a2.63,2.63,0,0,0-2.6,2.38Z" transform="translate(-28.37 -14.01)"/><path class="cls-1" d="M60.08,54.33h.44v-.25a1.75,1.75,0,0,0-2-1.9,4.93,4.93,0,0,0-2.24.61c-.53.23-.93.15-1.18-.36l-.21-.4a.78.78,0,0,1,.34-1.18A7.59,7.59,0,0,1,58.75,50c2.79,0,4.45,1.56,4.45,4.29v5.84a.78.78,0,0,1-.88.89H61.6a.78.78,0,0,1-.87-.89v-.42a1.79,1.79,0,0,1,.05-.46h-.05a3.91,3.91,0,0,1-3.37,2A3.3,3.3,0,0,1,53.79,58C53.79,54.86,57.67,54.33,60.08,54.33Zm-2,4.86a2.74,2.74,0,0,0,2.47-2.83V56H60.1c-1.35,0-3.65.21-3.65,1.81A1.46,1.46,0,0,0,58.07,59.19Z" transform="translate(-28.37 -14.01)"/><path class="cls-1" d="M65.46,46.88a.79.79,0,0,1,.87-.89h.93a.78.78,0,0,1,.86.89V57.41c0,1.06.45,1.25.85,1.29a.69.69,0,0,1,.65.76v.72a.8.8,0,0,1-.88.91c-1.44,0-3.28-.38-3.28-3.47Z" transform="translate(-28.37 -14.01)"/><path class="cls-1" d="M71.67,52.5H71.1a.78.78,0,0,1-.87-.89v-.36a.8.8,0,0,1,.89-.89h.61V48.17a.81.81,0,0,1,.89-.89h.84a.81.81,0,0,1,.89.89v2.19h1.56a.81.81,0,0,1,.89.89v.36a.79.79,0,0,1-.87.89H74.35v4.17a1.76,1.76,0,0,0,1.73,2c.66.06.89.27.89.87v.65c0,.63-.36.89-1.1.89-1.92,0-4.2-1-4.2-4Z" transform="translate(-28.37 -14.01)"/><path class="cls-1" d="M78.55,46.88a.81.81,0,0,1,.89-.89h.91a.79.79,0,0,1,.88.89v4.35a6.46,6.46,0,0,1-.06.91h0A4.24,4.24,0,0,1,85,50c2.38,0,3.75,1.25,3.75,4.1v6a.79.79,0,0,1-.88.89h-.91a.79.79,0,0,1-.89-.89V54.61c0-1.31-.33-2.2-1.69-2.2-1.87,0-3.1,1.52-3.1,3.57v4.11a.78.78,0,0,1-.88.89h-.91a.79.79,0,0,1-.89-.89Z" transform="translate(-28.37 -14.01)"/><path class="cls-1" d="M96.45,46.88a.79.79,0,0,1,.87-.89h4.24c4.62,0,7.64,2.75,7.64,7.48s-3,7.51-7.64,7.51H97.32a.78.78,0,0,1-.87-.89Zm5,11.76c3,0,5-1.8,5-5.17s-2-5.13-5-5.13H99.15v10.3Z" transform="translate(-28.37 -14.01)"/><path class="cls-1" d="M116.59,54.33H117v-.25a1.75,1.75,0,0,0-2-1.9,4.93,4.93,0,0,0-2.24.61c-.53.23-.93.15-1.18-.36l-.21-.4a.78.78,0,0,1,.33-1.18,7.67,7.67,0,0,1,3.53-.89c2.79,0,4.45,1.56,4.45,4.29v5.84a.78.78,0,0,1-.88.89h-.72a.78.78,0,0,1-.87-.89v-.42a1.79,1.79,0,0,1,.05-.46h-.05a3.91,3.91,0,0,1-3.37,2A3.3,3.3,0,0,1,110.3,58C110.3,54.86,114.18,54.33,116.59,54.33Zm-2,4.86a2.74,2.74,0,0,0,2.47-2.83V56h-.44c-1.35,0-3.65.21-3.65,1.81A1.46,1.46,0,0,0,114.58,59.19Z" transform="translate(-28.37 -14.01)"/><path class="cls-1" d="M122.46,52.5h-.57a.78.78,0,0,1-.87-.89v-.36a.8.8,0,0,1,.89-.89h.61V48.17a.81.81,0,0,1,.89-.89h.84a.81.81,0,0,1,.89.89v2.19h1.56a.81.81,0,0,1,.89.89v.36a.79.79,0,0,1-.87.89h-1.58v4.17a1.76,1.76,0,0,0,1.73,2c.65.06.89.27.89.87v.65c0,.63-.36.89-1.1.89-1.92,0-4.2-1-4.2-4Z" transform="translate(-28.37 -14.01)"/><path class="cls-1" d="M134.81,54.33h.44v-.25a1.76,1.76,0,0,0-2-1.9,4.9,4.9,0,0,0-2.24.61c-.53.23-.93.15-1.18-.36l-.22-.4a.79.79,0,0,1,.34-1.18,7.64,7.64,0,0,1,3.53-.89c2.78,0,4.45,1.56,4.45,4.29v5.84A.78.78,0,0,1,137,61h-.71a.78.78,0,0,1-.87-.89v-.42a2.21,2.21,0,0,1,0-.46h0a3.92,3.92,0,0,1-3.38,2A3.29,3.29,0,0,1,128.52,58C128.52,54.86,132.4,54.33,134.81,54.33Zm-2,4.86a2.74,2.74,0,0,0,2.47-2.83V56h-.44c-1.35,0-3.65.21-3.65,1.81A1.46,1.46,0,0,0,132.8,59.19Z" transform="translate(-28.37 -14.01)"/><path class="cls-1" d="M145.68,46.88a.78.78,0,0,1,.86-.89h4.06a7,7,0,0,1,2.85.4,4.18,4.18,0,0,1,2.51,4.1,4.35,4.35,0,0,1-2.49,4.1v0a5,5,0,0,1,.48.78l2.47,4.52c.36.61.09,1-.61,1h-1.14a1.07,1.07,0,0,1-1-.61l-2.64-5h-2.62v4.7a.78.78,0,0,1-.87.89h-1c-.57,0-.86-.29-.86-.89ZM150.83,53a2.19,2.19,0,0,0,2.36-2.38,2,2,0,0,0-1.18-2,3.72,3.72,0,0,0-1.62-.25h-2V53Z" transform="translate(-28.37 -14.01)"/><path class="cls-1" d="M162.9,50c3.06,0,4.77,2.18,4.77,5.13a.93.93,0,0,1-.92.91h-6.57a3.09,3.09,0,0,0,3.23,3,4.49,4.49,0,0,0,2.32-.69c.53-.26.91-.19,1.18.29l.26.43a.8.8,0,0,1-.3,1.18,6.81,6.81,0,0,1-3.65,1.07,5.51,5.51,0,0,1-5.78-5.63A5.3,5.3,0,0,1,162.9,50ZM165,54.37A2.19,2.19,0,0,0,162.84,52a2.63,2.63,0,0,0-2.6,2.38Z" transform="translate(-28.37 -14.01)"/><path class="cls-1" d="M168.94,58.93l.25-.38c.32-.44.68-.48,1.21-.21a4.75,4.75,0,0,0,2.4.74c.93,0,1.5-.42,1.5-1.1,0-1.75-5.34-1.09-5.34-4.79,0-2.11,1.86-3.23,4.12-3.23a6.1,6.1,0,0,1,3,.78.82.82,0,0,1,.31,1.19l-.21.38c-.25.5-.65.57-1.18.33a4.84,4.84,0,0,0-2.05-.52c-.93,0-1.46.38-1.46,1.05,0,1.77,5.35,1.08,5.35,4.75,0,1.9-1.61,3.31-4.1,3.31a6.35,6.35,0,0,1-3.59-1.09A.77.77,0,0,1,168.94,58.93Z" transform="translate(-28.37 -14.01)"/><path class="cls-1" d="M183.44,50c3.06,0,4.77,2.18,4.77,5.13a.93.93,0,0,1-.92.91h-6.57A3.09,3.09,0,0,0,184,59a4.49,4.49,0,0,0,2.32-.69c.53-.26.91-.19,1.18.29l.26.43a.8.8,0,0,1-.3,1.18,6.81,6.81,0,0,1-3.65,1.07A5.51,5.51,0,0,1,178,55.6,5.3,5.3,0,0,1,183.44,50Zm2.11,4.41A2.19,2.19,0,0,0,183.38,52a2.63,2.63,0,0,0-2.6,2.38Z" transform="translate(-28.37 -14.01)"/><path class="cls-1" d="M195.41,54.33h.44v-.25a1.75,1.75,0,0,0-2-1.9,4.93,4.93,0,0,0-2.24.61c-.53.23-.93.15-1.18-.36l-.21-.4a.79.79,0,0,1,.34-1.18,7.59,7.59,0,0,1,3.52-.89c2.79,0,4.46,1.56,4.46,4.29v5.84a.79.79,0,0,1-.89.89h-.72c-.57,0-.86-.29-.86-.89v-.42a2.21,2.21,0,0,1,0-.46h0a3.93,3.93,0,0,1-3.38,2A3.3,3.3,0,0,1,189.12,58C189.12,54.86,193,54.33,195.41,54.33Zm-2,4.86a2.74,2.74,0,0,0,2.47-2.83V56h-.45c-1.35,0-3.65.21-3.65,1.81A1.47,1.47,0,0,0,193.41,59.19Z" transform="translate(-28.37 -14.01)"/><path class="cls-1" d="M200.82,51.1a.78.78,0,0,1,.86-.88h.82a.8.8,0,0,1,.89.88v1a4.56,4.56,0,0,1-.06.73h0c.42-1.28,1.6-2.72,3.12-2.72.59,0,.81.3.81.89v.82a.82.82,0,0,1-.91.89c-2,0-2.91,1.94-2.91,3.9v3.46a.78.78,0,0,1-.87.89h-.93c-.57,0-.86-.29-.86-.89Z" transform="translate(-28.37 -14.01)"/><path class="cls-1" d="M213.29,50A6.08,6.08,0,0,1,216.82,51a.8.8,0,0,1,.17,1.2l-.28.42c-.32.49-.67.49-1.18.24a3.72,3.72,0,0,0-2.09-.66,3.2,3.2,0,0,0-3.27,3.34A3.26,3.26,0,0,0,213.52,59a4.21,4.21,0,0,0,2.41-.82c.53-.29.93-.23,1.2.28l.21.4a.82.82,0,0,1-.23,1.18,6.42,6.42,0,0,1-3.82,1.24,5.64,5.64,0,1,1,0-11.27Z" transform="translate(-28.37 -14.01)"/><path class="cls-1" d="M219.1,46.88A.8.8,0,0,1,220,46h.91a.8.8,0,0,1,.89.89v4.35a5.55,5.55,0,0,1-.07.91h0A4.21,4.21,0,0,1,225.49,50c2.39,0,3.76,1.25,3.76,4.1v6a.79.79,0,0,1-.89.89h-.9a.78.78,0,0,1-.89-.89V54.61c0-1.31-.34-2.2-1.69-2.2-1.88,0-3.1,1.52-3.1,3.57v4.11a.79.79,0,0,1-.89.89H220a.79.79,0,0,1-.88-.89Z" transform="translate(-28.37 -14.01)"/><path class="cls-1" d="M28.37,68.64a.79.79,0,0,1,.87-.89h1a.79.79,0,0,1,.87.89V81.85a.78.78,0,0,1-.87.89h-1a.78.78,0,0,1-.87-.89Z" transform="translate(-28.37 -14.01)"/><path class="cls-1" d="M33.78,72.86a.78.78,0,0,1,.86-.89h.83a.78.78,0,0,1,.86.89v.65a3.78,3.78,0,0,1,0,.49h0a4.21,4.21,0,0,1,3.82-2.28c2.39,0,3.76,1.24,3.76,4.09v6a.79.79,0,0,1-.89.89h-.9a.8.8,0,0,1-.89-.89V76.36c0-1.31-.34-2.19-1.69-2.19-1.9,0-3.1,1.58-3.1,3.52v4.16a.78.78,0,0,1-.87.89h-.93a.78.78,0,0,1-.86-.89Z" transform="translate(-28.37 -14.01)"/><path class="cls-1" d="M46.21,72.86a.79.79,0,0,1,.87-.89h.82a.79.79,0,0,1,.87.89v.65a3,3,0,0,1-.05.49h.05a4.18,4.18,0,0,1,3.82-2.28c2.38,0,3.75,1.24,3.75,4.09v6a.78.78,0,0,1-.88.89h-.91a.8.8,0,0,1-.89-.89V76.36c0-1.31-.33-2.19-1.69-2.19-1.9,0-3.1,1.58-3.1,3.52v4.16a.78.78,0,0,1-.86.89h-.93a.78.78,0,0,1-.87-.89Z" transform="translate(-28.37 -14.01)"/><path class="cls-1" d="M63.88,71.72A5.64,5.64,0,1,1,58,77.35,5.68,5.68,0,0,1,63.88,71.72Zm0,9a3.36,3.36,0,1,0-3.19-3.36A3.21,3.21,0,0,0,63.88,80.71Z" transform="translate(-28.37 -14.01)"/><path class="cls-1" d="M70.53,73c-.21-.61,0-1,.7-1h1a.94.94,0,0,1,1,.74l2,5.93a16.63,16.63,0,0,1,.4,1.63h0A14.36,14.36,0,0,1,76,78.64l2-5.93A.94.94,0,0,1,79,72h1c.65,0,.93.4.72,1L77.5,82a.94.94,0,0,1-1,.72H74.81a.92.92,0,0,1-1-.72Z" transform="translate(-28.37 -14.01)"/><path class="cls-1" d="M87.71,76.09h.45v-.26a1.76,1.76,0,0,0-2-1.9,4.81,4.81,0,0,0-2.24.62.8.8,0,0,1-1.18-.36l-.21-.4a.8.8,0,0,1,.34-1.19,7.73,7.73,0,0,1,3.52-.88c2.79,0,4.46,1.56,4.46,4.28v5.85a.79.79,0,0,1-.89.89h-.72a.78.78,0,0,1-.86-.89v-.42a2.26,2.26,0,0,1,0-.47h0A3.93,3.93,0,0,1,85,83a3.31,3.31,0,0,1-3.57-3.23C81.42,76.62,85.31,76.09,87.71,76.09Zm-2,4.85a2.74,2.74,0,0,0,2.47-2.83v-.4h-.45c-1.35,0-3.65.21-3.65,1.82A1.46,1.46,0,0,0,85.71,80.94Z" transform="translate(-28.37 -14.01)"/><path class="cls-1" d="M93.58,74.25H93c-.57,0-.86-.29-.86-.89V73a.79.79,0,0,1,.88-.89h.61v-2.2a.8.8,0,0,1,.89-.88h.84a.8.8,0,0,1,.89.88v2.2h1.56a.81.81,0,0,1,.89.89v.35a.79.79,0,0,1-.87.89H96.26v4.18a1.77,1.77,0,0,0,1.73,2c.66.06.89.27.89.86V82c0,.63-.36.88-1.1.88-1.92,0-4.2-1-4.2-3.94Z" transform="translate(-28.37 -14.01)"/><path class="cls-1" d="M100.46,69.27v-.63a.79.79,0,0,1,.87-.89h.93a.8.8,0,0,1,.88.89v.63a.78.78,0,0,1-.88.86h-.93A.77.77,0,0,1,100.46,69.27Zm0,3.59a.79.79,0,0,1,.87-.89h.93a.78.78,0,0,1,.86.89v9a.78.78,0,0,1-.86.89h-.93a.78.78,0,0,1-.87-.89Z" transform="translate(-28.37 -14.01)"/><path class="cls-1" d="M110.81,71.72a5.64,5.64,0,1,1-5.92,5.63A5.68,5.68,0,0,1,110.81,71.72Zm0,9a3.36,3.36,0,1,0-3.19-3.36A3.2,3.2,0,0,0,110.81,80.71Z" transform="translate(-28.37 -14.01)"/><path class="cls-1" d="M118.49,72.86a.79.79,0,0,1,.86-.89h.83a.78.78,0,0,1,.86.89v.65a3.78,3.78,0,0,1,0,.49h0a4.21,4.21,0,0,1,3.82-2.28c2.39,0,3.76,1.24,3.76,4.09v6a.78.78,0,0,1-.88.89h-.91a.8.8,0,0,1-.89-.89V76.36c0-1.31-.34-2.19-1.69-2.19-1.9,0-3.1,1.58-3.1,3.52v4.16a.78.78,0,0,1-.87.89h-.93a.78.78,0,0,1-.86-.89Z" transform="translate(-28.37 -14.01)"/><path class="cls-1" d="M143.25,67.5a8.94,8.94,0,0,1,4.9,1.37.79.79,0,0,1,.19,1.22l-.38.59c-.32.49-.7.53-1.23.24A6.34,6.34,0,0,0,143.4,70a4.89,4.89,0,0,0-5.09,5.19,5,5,0,0,0,5,5.32,5,5,0,0,0,3.8-1.65V77.19h-1.43a.81.81,0,0,1-.89-.89v-.57a.8.8,0,0,1,.89-.89h3a.78.78,0,0,1,.86.89v6.12a.78.78,0,0,1-.86.89h-.53c-.57,0-.87-.3-.87-.72v-.36a3.47,3.47,0,0,1,0-.36h0A6.07,6.07,0,0,1,142.87,83a7.38,7.38,0,0,1-7.37-7.68A7.56,7.56,0,0,1,143.25,67.5Z" transform="translate(-28.37 -14.01)"/><path class="cls-1" d="M157.16,76.09h.45v-.26a1.76,1.76,0,0,0-2-1.9,4.81,4.81,0,0,0-2.24.62.8.8,0,0,1-1.18-.36l-.21-.4a.8.8,0,0,1,.34-1.19,7.73,7.73,0,0,1,3.52-.88c2.79,0,4.46,1.56,4.46,4.28v5.85a.79.79,0,0,1-.89.89h-.72a.78.78,0,0,1-.86-.89v-.42a2.26,2.26,0,0,1,0-.47h0a3.93,3.93,0,0,1-3.38,2,3.31,3.31,0,0,1-3.57-3.23C150.87,76.62,154.76,76.09,157.16,76.09Zm-2,4.85a2.74,2.74,0,0,0,2.47-2.83v-.4h-.45c-1.35,0-3.65.21-3.65,1.82A1.46,1.46,0,0,0,155.16,80.94Z" transform="translate(-28.37 -14.01)"/><path class="cls-1" d="M163,74.25h-.57a.78.78,0,0,1-.87-.89V73a.8.8,0,0,1,.89-.89h.61v-2.2A.8.8,0,0,1,164,69h.84a.8.8,0,0,1,.89.88v2.2h1.56a.81.81,0,0,1,.89.89v.35a.79.79,0,0,1-.87.89h-1.58v4.18a1.77,1.77,0,0,0,1.73,2c.66.06.89.27.89.86V82c0,.63-.36.88-1.1.88-1.92,0-4.2-1-4.2-3.94Z" transform="translate(-28.37 -14.01)"/><path class="cls-1" d="M174.64,71.72c3.06,0,4.77,2.17,4.77,5.13a.94.94,0,0,1-.93.91h-6.56a3.09,3.09,0,0,0,3.23,2.95,4.43,4.43,0,0,0,2.32-.7c.53-.25.91-.19,1.18.3l.25.42a.8.8,0,0,1-.29,1.18A6.74,6.74,0,0,1,175,83a5.52,5.52,0,0,1-5.79-5.64A5.31,5.31,0,0,1,174.64,71.72Zm2.11,4.41a2.19,2.19,0,0,0-2.17-2.39,2.63,2.63,0,0,0-2.6,2.39Z" transform="translate(-28.37 -14.01)"/><path class="cls-1" d="M180.28,73a.7.7,0,0,1,.74-1h1a.87.87,0,0,1,.95.78L184.71,79c.13.57.21,1.14.21,1.14h0s.09-.57.24-1.14L187,72.75a.9.9,0,0,1,1-.76h.8a.9.9,0,0,1,1,.76l1.8,6.29a7.16,7.16,0,0,1,.23,1.14h0s.09-.57.24-1.14l1.71-6.29a.9.9,0,0,1,1-.78h1a.7.7,0,0,1,.74,1l-2.77,9a.93.93,0,0,1-1,.74h-1.42a.94.94,0,0,1-1-.76l-1.62-5.39a9.84,9.84,0,0,1-.26-1.16h0a11.2,11.2,0,0,1-.27,1.16L186.46,82a.9.9,0,0,1-1,.76H184a.92.92,0,0,1-1-.74Z" transform="translate(-28.37 -14.01)"/><path class="cls-1" d="M203.5,76.09h.44v-.26a1.76,1.76,0,0,0-2-1.9,4.76,4.76,0,0,0-2.23.62.81.81,0,0,1-1.19-.36l-.21-.4a.8.8,0,0,1,.34-1.19,7.78,7.78,0,0,1,3.53-.88c2.78,0,4.45,1.56,4.45,4.28v5.85a.79.79,0,0,1-.89.89H205a.78.78,0,0,1-.87-.89v-.42a2.26,2.26,0,0,1,0-.47h0a3.92,3.92,0,0,1-3.38,2,3.3,3.3,0,0,1-3.56-3.23C197.21,76.62,201.09,76.09,203.5,76.09Zm-2,4.85A2.74,2.74,0,0,0,204,78.11v-.4h-.44c-1.35,0-3.65.21-3.65,1.82A1.45,1.45,0,0,0,201.49,80.94Z" transform="translate(-28.37 -14.01)"/><path class="cls-1" d="M208.94,84.76a1.76,1.76,0,0,0,.76.19,2,2,0,0,0,1.71-1.43l.4-1L207.72,73c-.28-.62,0-1,.67-1h1.14a1,1,0,0,1,1,.72l2,5.49c.19.57.4,1.45.4,1.45H213s.19-.84.35-1.41l1.9-5.51a.93.93,0,0,1,1-.74h1.05c.66,0,.93.4.72,1l-4.43,11.36a4.06,4.06,0,0,1-3.89,2.83,4.12,4.12,0,0,1-1.5-.32.76.76,0,0,1-.4-1.14l.19-.46A.77.77,0,0,1,208.94,84.76Z" transform="translate(-28.37 -14.01)"/><polygon class="cls-2" points="164.16 95.41 164.16 75.23 160.34 75.23 160.34 102.67 179.98 89.21 177.82 86.05 164.16 95.41"/><polygon class="cls-3" points="213.35 39.47 211.07 42.54 225.58 53.34 211.13 63.24 213.29 66.39 232.15 53.47 213.35 39.47"/><polygon class="cls-4" points="160.34 27.61 164.16 27.61 164.16 7.61 177.76 17.74 180.04 14.67 160.34 0 160.34 27.61"/></svg>